<svg width="160" height="160" viewBox="0 0 24 24" fill="none" xmlns="http://www.w3.org/2000/svg">
    <!-- Main paper body -->
    <path d="M4 3C4 2.44772 4.44772 2 5 2H16L20 6V21C20 21.5523 19.5523 22 19 22H5C4.44772 22 4 21.5523 4 21V3Z" fill="currentColor" opacity="0.1"/>
    
    <!-- Paper outline -->
    <path d="M4 3C4 2.44772 4.44772 2 5 2H16L20 6V21C20 21.5523 19.5523 22 19 22H5C4.44772 22 4 21.5523 4 21V3Z" stroke="currentColor" stroke-width="1.5" fill="none"/>
    
    <!-- Folded corner -->
    <path d="M16 2V6H20" stroke="currentColor" stroke-width="1.5" fill="none"/>
    <path d="M16 2V6H20L16 2Z" fill="currentColor" opacity="0.2"/>
    
    <!-- Writing lines (positioned to avoid fold area) -->
    <line x1="7" y1="10" x2="17" y2="10" stroke="currentColor" stroke-width="1" opacity="0.6"/>
    <line x1="7" y1="13" x2="15" y2="13" stroke="currentColor" stroke-width="1" opacity="0.6"/>
    <line x1="7" y1="16" x2="16" y2="16" stroke="currentColor" stroke-width="1" opacity="0.6"/>
</svg>